# xmcd CD database file
#
# Track frame offsets:
#	150
#	33109
#	57420
#	79976
#	102714
#	123980
#	151596
#	176620
#	200322
#	234527
#	259085
#	301252
#
# Disc length: 4443 seconds
#
# Revision: 0
# Processed by: cddbd v1.4PL0 Copyright (c) Steve Scherf et al.
# Submitted via: CDex 1.50beta10
#
DISCID=9611590c
DTITLE=Deep Dish - Global Underground 021 - Moscow [CD1]
DYEAR=1900
DGENRE=New Age
TTITLE0=16B Featuring Morel - Escape (Driving To Heaven)
TTITLE1=Soul Providers [feat. Michelle Shellers] - Rise
TTITLE2=G-Pal Presents Ghos - I Can See The Lights
TTITLE3=El Greco - Night Watch
TTITLE4=Mechas - Hot
TTITLE5=Nat Monday - Waiting
TTITLE6=Sshh - Hold That Body
TTITLE7=Manaca, Chus and Ceballos - The Strong Rhythm
TTITLE8=Dido - Thank You
TTITLE9=Chab - The Dub Session
TTITLE10=IIO - Rapture
TTITLE11=Dakota - Lost In Brixton
EXTD=
EXTT0=
EXTT1=
EXTT2=
EXTT3=
EXTT4=
EXTT5=
EXTT6=
EXTT7=
EXTT8=
EXTT9=
EXTT10=
EXTT11=
PLAYORDER=
